inDegrees=no
num_controls=7
num_derivatives=13
num_iterations=125
num_multipliers=7
num_parameters=0
num_slacks=7
num_states=26
objective=0.445747
objective_accelerations=0.057098
objective_balance=0.003423
objective_effort=0.022685
objective_height=0.357000
objective_ligament=0.005541
solver_duration=1889.853503
status=Solve_Succeeded
success=true
DataType=double
version=3
OpenSimVersion=4.5
endheader
time	/jointset/ground_pelvis/pelvis_tilt/value	/jointset/ground_pelvis/pelvis_tx/value	/jointset/ground_pelvis/pelvis_ty/value	/jointset/hip_l/hip_flexion_l/value	/jointset/hip_l/hip_adduction_l/value	/jointset/hip_l/hip_rotation_l/value	/jointset/back/lumbar_extension/value	/jointset/patellofemoral_l/patellar_flexion_l/value	/jointset/knee_l/knee_flexion_l/value	/jointset/knee_l/knee_adduction_l/value	/jointset/knee_l/knee_rotation_l/value	/jointset/ankle_l/ankle_angle_l/value	/jointset/subtalar_l/subtalar_angle_l/value	/jointset/ground_pelvis/pelvis_tilt/speed	/jointset/ground_pelvis/pelvis_tx/speed	/jointset/ground_pelvis/pelvis_ty/speed	/jointset/hip_l/hip_flexion_l/speed	/jointset/hip_l/hip_adduction_l/speed	/jointset/hip_l/hip_rotation_l/speed	/jointset/back/lumbar_extension/speed	/jointset/patellofemoral_l/patellar_flexion_l/speed	/jointset/knee_l/knee_flexion_l/speed	/jointset/knee_l/knee_adduction_l/speed	/jointset/knee_l/knee_rotation_l/speed	/jointset/ankle_l/ankle_angle_l/speed	/jointset/subtalar_l/subtalar_angle_l/speed	/forceset/tau_hip_flexion_l	/forceset/tau_hip_adduction_l	/forceset/tau_hip_rotation_l	/forceset/tau_knee_flexion_l	/forceset/tau_ankle_angle_l	/forceset/tau_subtalar_angle_l	/forceset/tau_lumbar_extension	lambda_cid13_p0	lambda_cid13_p1	lambda_cid13_p2	lambda_cid13_p3	lambda_cid13_p4	lambda_cid13_p5	lambda_cid14_p0	/jointset/ground_pelvis/pelvis_tilt/accel	/jointset/ground_pelvis/pelvis_tx/accel	/jointset/ground_pelvis/pelvis_ty/accel	/jointset/hip_l/hip_flexion_l/accel	/jointset/hip_l/hip_adduction_l/accel	/jointset/hip_l/hip_rotation_l/accel	/jointset/back/lumbar_extension/accel	/jointset/patellofemoral_l/patellar_flexion_l/accel	/jointset/knee_l/knee_flexion_l/accel	/jointset/knee_l/knee_adduction_l/accel	/jointset/knee_l/knee_rotation_l/accel	/jointset/ankle_l/ankle_angle_l/accel	/jointset/subtalar_l/subtalar_angle_l/accel	gamma_cid13_p0	gamma_cid13_p1	gamma_cid13_p2	gamma_cid13_p3	gamma_cid13_p4	gamma_cid13_p5	gamma_cid14_p0
0	-0.03945019159434893	0.06888051972858032	0.8959477977618298	0.1955287580552426	-0.3220387304879674	-0.4827591767178945	-0.1379045077516729	0.07015288079084815	0.07015288079084844	-0.1745328544213365	-0.1172570278923672	-0.06701059314715049	0.003777992831682916	0	0	0	0	0	0	0	0	0	0	0	0	0	0.1079661664354744	-0.09905977571041281	-0.03082643837520979	-0.2394941775689919	0.2027501377949438	-0.01814703213375703	-0.05215540910101096	29.3562654447001	-0.2575810250194345	3.13046214035267	-3.533035995801597	-515.3627365967172	-78.39182641268596	-39.89953421625599	-4.374587094952736	-1.762734442455956	-0.9666937531967961	12.37846034411229	-2.140066118061796	3.363779970964182	-2.827504657832302	10.27591629469151	10.27591629468999	0.6536425988363492	-0.8242549939491273	2.46226068014264	-1.008150063784126	-3.622216739309208e-08	1.121071031555233e-07	1.399676459695105e-07	1.569037394897618e-08	-3.081016437516983e-08	-5.838393230129765e-08	-9.871045707129103e-09
0.01	-0.03965870795864846	0.06879345127338835	0.895900873885678	0.196127458136002	-0.3221439824027445	-0.4825903638369724	-0.1380517116227097	0.0706521278987724	0.07065212789877842	-0.1745034100714485	-0.1172921798352238	-0.06689244880419168	0.003726758330257414	-0.04149533141844312	-0.01734829161628746	-0.009354005851896444	0.1192143832658163	-0.02093604678640372	0.03361188493903132	-0.02918560286408175	0.09940828176273124	0.09940828176272587	0.005892660466050464	-0.007001274859866755	0.02351297444248582	-0.01018582092790755	0.1029031683717304	-0.09887026828157032	-0.02977241290345495	-0.2325668350224869	0.1922962062794498	-0.01359184416066136	-0.04795365509991063	26.13928674734502	-1.681810471236596	3.368009529950316	-2.137820435928849	-516.2012790795711	-81.40371001100729	-39.90964960710093	-4.005826680488492	-1.711063469806665	-0.9151447564503024	11.61407002069285	-2.05325620726992	3.337272503001739	-2.925812399226917	9.707115117842557	9.707115117842815	0.5576820387247996	-0.6336816425496108	2.278432377333066	-1.014669906210689	-7.23940453346183e-08	1.45880702184733e-07	2.077126240490163e-07	5.048868239845156e-08	-2.460345007768716e-07	-9.954598582973764e-08	-1.405689420973652e-08
0.02	-0.04027594174017136	0.06853486251231519	0.8957613317999543	0.1979025305899944	-0.3224551712350535	-0.4820899561571335	-0.1384831163820934	0.07213222402448705	0.07213222402448731	-0.1744149182632404	-0.1173964681087745	-0.06654265140660166	0.003575491259769519	-0.08174348344482463	-0.03430406117623276	-0.01852364191435654	0.2352744746466943	-0.0411873835064172	0.06631895978322884	-0.05684017766939727	0.1961698035566076	0.1961698035566092	0.01180949166151729	-0.01382726614150069	0.04633061092623242	-0.02000651381247962	0.09784017030797512	-0.09868076085273003	-0.0287183874317754	-0.2256394924759752	0.1818422747639543	-0.0090366561875681	-0.04375190109881721	22.98582991887671	-3.118214086770779	3.608700629700996	-0.9059466970092336	-516.1145358266095	-84.25155535210226	-39.93943682146502	-4.125151216540425	-1.684230031187518	-0.9298197953095262	11.74760196712464	-2.003124104783752	3.182817951997424	-2.521299046079064	9.746564300920534	9.746564300921479	0.6584767447196168	-0.7891982783025624	2.323193088394802	-0.9351244551170277	-1.085659232761445e-07	1.796543012139428e-07	2.754576021285221e-07	8.528699084792694e-08	-4.612588371785733e-07	-1.407080393581776e-07	-1.824274271234393e-08
0.03	-0.04129015991892089	0.06810896768544357	0.8955307119414799	0.2008232912519721	-0.3229654280895886	-0.4812670146963077	-0.1391828510007333	0.07456726699593892	0.07456726699593597	-0.1742671178746069	-0.1175683019531236	-0.06596762407280658	0.003328137302824048	-0.1209033406645004	-0.05077786329419294	-0.02759097682786707	0.3483284887525638	-0.06074857693587988	0.098140981958593	-0.08286035168625716	0.2903893920087801	0.2903893920087849	0.01772719059386504	-0.02048020188945469	0.06858835333718806	-0.02938795620625479	0.09347224627530144	-0.09539533780783155	-0.02800357284797629	-0.2215706485912983	0.1773269053657619	-0.0085913078870513	-0.04008220964791218	21.58626465640263	-3.137592840217059	3.692909055824086	-0.5887199709386239	-516.0611401309591	-83.69682340948046	-39.98769657741025	-3.781893335824058	-1.61438196850506	-0.8938805178323712	11.00190613247961	-1.91535489692881	3.162606165556439	-2.60541742366215	9.192249974150052	9.192249974149959	0.554969333698185	-0.5944130082135113	2.164087682387882	-0.9282651555389367	-1.389547806691662e-07	1.99114748250624e-07	3.350148536924785e-07	1.135181452194857e-07	-6.301770708116036e-07	-1.791444688893575e-07	-2.280682205676063e-08
0.04	-0.042690074742095	0.06752124950411141	0.8952096806981782	0.204858113055041	-0.3236678444653988	-0.4801297106506783	-0.1401353955283762	0.07793102462326451	0.07793102462326468	-0.1740608299234133	-0.1178048795119958	-0.06517261474191353	0.002989246717134603	-0.1588828123298944	-0.06666873206834179	-0.03660591887979676	0.4580867028648937	-0.07961928776139407	0.1291914767439777	-0.1074021594700264	0.3819127347323307	0.3819127347323342	0.02350700417444652	-0.02677600904427585	0.09032701034582151	-0.03831383956127658	0.08910432224262545	-0.09210991476293165	-0.02728875826412666	-0.2175018047066293	0.1728115359675695	-0.008145959586533632	-0.03641251819700981	20.24473994802427	-3.167075618309772	3.778662365079396	-0.4231835843344258	-515.1657596795801	-82.98734607419112	-40.05289094081793	-3.889074105684061	-1.567643362425246	-0.9193412229933592	11.08844196841673	-1.86502758399405	3.028512474001531	-2.225625799460941	9.207315155196159	9.207315155196172	0.6308996743663647	-0.717772559675992	2.219376007930369	-0.8440126473663461	-1.692244005251052e-07	2.182800787513769e-07	3.944032861530215e-07	1.416138943523246e-07	-7.981405394390945e-07	-2.175246999876042e-07	-2.737869997523525e-08
0.05	-0.04446458915568439	0.0667774350562339	0.8947984841800416	0.2099755403527737	-0.3245554408053782	-0.4786861451016769	-0.1413253531219311	0.08219743347661886	0.08219743347661881	-0.173797140289004	-0.1181033365168859	-0.06416260790117324	0.002563557733660069	-0.1958197974060451	-0.08200365461329757	-0.04564170824327141	0.5648645521184154	-0.0977726401699479	0.1593835385200885	-0.1303573827767493	0.4709183487011884	0.4709183487011874	0.02920829995693411	-0.03286533124039984	0.1115746273894631	-0.04674325524043232	0.0841929485013137	-0.08823705566284669	-0.0264779270752298	-0.2133241622558493	0.1678626282982657	-0.007833143615272736	-0.03242392568772826	18.74787462200753	-3.123958388671563	3.866727701868919	0.009394225210852187	-514.3633653632007	-82.08824184472263	-40.13309329388413	-3.565981882648474	-1.502812716625386	-0.8971073027717364	10.39230060877019	-1.771450683671999	2.993785879391239	-2.295674126660818	8.67958694481697	8.679586944816267	0.5364332274606285	-0.5469526328637595	2.06249072336918	-0.8303791012687741	-1.866990321758065e-07	2.201602497327971e-07	4.295073558513861e-07	1.584999832962677e-07	-9.02073564895043e-07	-2.41174969213704e-07	-3.03016667019032e-08
0.06	-0.04660246765484836	0.06588299217968792	0.8942966478663206	0.2161447149840313	-0.3256207629923206	-0.4769448123649194	-0.14273790365463	0.08734037895507862	0.08734037895507873	-0.1734770999573166	-0.1184611748603949	-0.06294311765583892	0.002055979978778269	-0.2315556294449141	-0.0967944178020364	-0.05473387799663367	0.6684361695699481	-0.11516445715394	0.1887449142952146	-0.1519207472987876	0.5572200597535018	0.5572200597534959	0.03477714363024925	-0.03865227676785007	0.1322236912646301	-0.05469159384273105	0.07928157475999449	-0.08436419656275983	-0.0256670958863281	-0.2091465198050707	0.1629137206289628	-0.007520327644009427	-0.02843533317845498	17.30327018913687	-3.088707852163335	3.954581341577219	0.3045978247813217	-512.8041261468201	-81.04686310638384	-40.22616616150209	-3.648843498227746	-1.458811491181851	-0.9306173009708804	10.44719560801893	-1.712720499081696	2.8623752738046	-1.947254042524007	8.666534571887279	8.666534571887251	0.6044092525318768	-0.6572972259412371	2.099665374235475	-0.7477972319949372	-2.03634927481024e-07	2.213126245239295e-07	4.635889260650275e-07	1.749140865480469e-07	-1.003310571691137e-06	-2.642050295188714e-07	-3.315520558891613e-08
0.07000000000000001	-0.04909251597008141	0.06484337665821691	0.8937033640985377	0.2233350982929529	-0.3268562334689586	-0.4749142066794098	-0.1443583865749248	0.09333388437219234	0.09333388437219244	-0.1731018270278862	-0.1188759371118465	-0.06151970247569477	0.001471507099541252	-0.2662529127100298	-0.1110324952923532	-0.06394460830675017	0.7691055555468483	-0.1317981603246514	0.2172473001809349	-0.171953897286939	0.6410290860982614	0.6410290860982588	0.0402463629607045	-0.04424001135031202	0.1523619618230621	-0.06211771256368755	0.07422791660373911	-0.0810876381013465	-0.02487742249292822	-0.2057053795608233	0.1584241287703357	-0.006721483633943646	-0.02438134459716561	16.00946425725384	-3.265454395788682	4.047118508364704	0.5083046461443844	-511.4454764292752	-80.44194655176906	-40.32969367609528	-3.350013327162648	-1.391842016199664	-0.9197626972800277	9.796542573102437	-1.61904072271253	2.824768181206808	-1.998054555988541	8.1703026957563	8.170302695756799	0.5136062609494638	-0.5004254368352666	1.956294659805729	-0.7273149995193718	-2.1161607720647e-07	2.048766397505125e-07	4.823530002085988e-07	1.819275925424044e-07	-1.052365648054116e-06	-2.789438758169036e-07	-3.581365410458598e-08
